<svg width="83.000000" height="83.000000" viewBox="0 0 83 83" fill="none" xmlns="http://www.w3.org/2000/svg" xmlns:xlink="http://www.w3.org/1999/xlink">
	<desc>
			Created with Pixso.
	</desc>
	<defs/>
	<circle id="icon background" cx="41.500000" cy="41.500000" r="41.500000" fill="#35AFBF" fill-opacity="1.000000"/>
	<path id="Vector" d="M35.3477 24L29.127 24C26.2998 24 24 26.2998 24 29.127L24 35.3477C24 38.1748 26.2998 40.4746 29.127 40.4746L35.3477 40.4746C38.1748 40.4746 40.4746 38.1748 40.4746 35.3477L40.4746 29.127C40.4746 26.2998 38.1748 24 35.3477 24Z" fill="#FFFFFF" fill-opacity="1.000000" fill-rule="nonzero"/>
	<path id="Vector" d="M53.873 42.5254L47.6523 42.5254C44.8252 42.5254 42.5254 44.8252 42.5254 47.6523L42.5254 53.873C42.5254 56.7002 44.8252 59 47.6523 59L53.873 59C56.7002 59 59 56.7002 59 53.873L59 47.6523C59 44.8252 56.7002 42.5254 53.873 42.5254Z" fill="#FFFFFF" fill-opacity="1.000000" fill-rule="nonzero"/>
	<path id="Vector" d="M53.873 24L47.6523 24C44.8252 24 42.5254 26.2998 42.5254 29.127L42.5254 35.3477C42.5254 39.3057 39.3057 42.5254 35.3477 42.5254L29.127 42.5254C26.2998 42.5254 24 44.8252 24 47.6523L24 53.873C24 56.7002 26.2998 59 29.127 59L35.3477 59C38.1748 59 40.4746 56.7002 40.4746 53.873L40.4746 47.6523C40.4746 43.6943 43.6943 40.4746 47.6523 40.4746L53.873 40.4746C56.7002 40.4746 59 38.1748 59 35.3477L59 29.127C59 26.2998 56.7002 24 53.873 24Z" fill="#FFFFFF" fill-opacity="1.000000" fill-rule="nonzero"/>
</svg>
