<svg width="82.000000" height="45.000000" viewBox="0 0 82 45" fill="none" xmlns="http://www.w3.org/2000/svg" xmlns:xlink="http://www.w3.org/1999/xlink">
	<desc>
			Created with Pixso.
	</desc>
	<defs/>
	<path id="$" d="M4.46484 17.9844Q3.07031 17.8555 2.11719 17.168Q1.16797 16.4805 0.753906 15.2656L1.9375 14.6562Q2.11328 15.5195 2.81641 16.1211Q3.51953 16.7188 4.46484 16.8945L4.46484 13.1836Q3.42578 12.9609 2.74219 12.6992Q2.0625 12.4336 1.61328 11.9062Q1.16797 11.375 1.16797 10.4961Q1.16797 9.69531 1.56641 9.03906Q1.96875 8.38281 2.71094 7.96094Q3.45703 7.53516 4.46484 7.45703L4.46484 5.83984L5.56641 5.83984L5.56641 7.47266Q6.75391 7.56641 7.52734 8.10547Q8.30469 8.64062 8.86328 9.67969L7.82422 10.4961Q7.42578 9.56641 6.91016 9.12109Q6.39844 8.67188 5.56641 8.55859L5.56641 12.3203Q6.60938 12.543 7.28906 12.8086Q7.96875 13.0703 8.42188 13.6172Q8.87891 14.1602 8.87891 15.0703Q8.87891 16.3047 7.98438 17.082Q7.08984 17.8555 5.56641 17.9844L5.56641 19.6016L4.46484 19.6016L4.46484 17.9844ZM4.46484 8.54297Q3.44141 8.64062 2.91016 9.12109Q2.38281 9.60156 2.38281 10.3984Q2.38281 11.1211 2.91797 11.4883Q3.45703 11.8555 4.46484 12.0977L4.46484 8.54297ZM5.56641 16.9297Q7.67969 16.7539 7.67969 15.168Q7.67969 14.4336 7.125 14.0508Q6.57422 13.6641 5.56641 13.4258L5.56641 16.9297Z" fill="#FFFFFF" fill-opacity="1.000000" fill-rule="evenodd"/>
	<path id="/mo" d="M51.6484 38.1211L50.4492 38.1211L55.3438 25.3203L56.543 25.3203L51.6484 38.1211ZM67.3932 28.8398Q68.19 28.8398 68.8853 29.168Q69.5846 29.4961 70.0143 30.1836Q70.4478 30.8711 70.4478 31.8789L70.4478 37L69.1666 37L69.1666 32.0078Q69.1666 30.9688 68.6471 30.4648Q68.1275 29.9609 67.2799 29.9609Q66.6393 29.9609 66.1041 30.2734Q65.5689 30.5859 65.2408 31.1875Q64.9127 31.7852 64.9127 32.6172L64.9127 37L63.6314 37L63.6314 32.0078Q63.6314 30.9688 63.1119 30.4648Q62.5924 29.9609 61.7447 29.9609Q61.1666 29.9609 60.6236 30.2578Q60.0807 30.5508 59.7291 31.1758Q59.3775 31.8008 59.3775 32.7266L59.3775 37L58.0963 37L58.0963 29L59.2174 29L59.2955 30.2461Q59.7135 29.543 60.3932 29.1914Q61.0728 28.8398 61.8541 28.8398Q62.7369 28.8398 63.4791 29.2422Q64.2252 29.6406 64.608 30.4062Q64.9596 29.6406 65.7603 29.2422Q66.5611 28.8398 67.3932 28.8398ZM76.7193 28.8398Q78.5279 28.8398 79.5591 29.9453Q80.5904 31.0469 80.5904 33Q80.5904 34.9531 79.5591 36.0586Q78.5279 37.1602 76.7193 37.1602Q74.9107 37.1602 73.8794 36.0586Q72.8482 34.9531 72.8482 33Q72.8482 31.0469 73.8794 29.9453Q74.9107 28.8398 76.7193 28.8398ZM76.7193 29.9453Q75.5044 29.9453 74.8169 30.7617Q74.1294 31.5742 74.1294 33Q74.1294 34.4258 74.8169 35.2422Q75.5044 36.0547 76.7193 36.0547Q77.9341 36.0547 78.6216 35.2422Q79.313 34.4258 79.313 33Q79.313 31.5742 78.6216 30.7617Q77.9341 29.9453 76.7193 29.9453Z" fill="#FFFFFF" fill-opacity="1.000000" fill-rule="evenodd"/>
	<path id="15" d="M24.6616 9.92334L24.6616 35L21.6279 35L21.6279 16.6123Q21.6279 15.8145 21.7021 13.6807Q20.4126 14.9331 18.6963 15.8701Q16.9893 16.7979 15.208 17.2153L14.4102 14.4414Q15.3193 14.3301 16.8779 13.5879Q18.4365 12.8457 19.8745 11.8438Q21.3218 10.8325 22.0083 9.92334L24.6616 9.92334ZM40.3613 18.9224Q43.9331 18.9224 46.0947 21.1489Q48.2656 23.3755 48.2656 27.0215Q48.2656 30.9365 45.9834 33.1631Q43.7012 35.3804 39.6748 35.3804Q36.2979 35.3804 34.1826 33.9238Q32.0767 32.458 30.9356 29.6377L33.9043 28.0884Q34.5444 30.2871 35.8154 31.4097Q37.0957 32.5322 39.5635 32.5322Q42.1426 32.5322 43.627 31.1313Q45.1113 29.7212 45.1113 27.2441Q45.1113 24.5908 43.7383 23.1899Q42.3745 21.7798 39.7861 21.7798Q35.8804 21.7798 34.2012 24.2104L31.5015 24.2104L33.023 9.92334L47.1245 9.92334L47.1245 12.7715L35.6113 12.7715L34.6187 20.6758L34.5816 21.019L34.6187 21.019Q36.6318 18.9224 40.3613 18.9224Z" fill="#FFFFFF" fill-opacity="1.000000" fill-rule="evenodd"/>
</svg>
