<svg width="84.000000" height="45.000000" viewBox="0 0 84 45" fill="none" xmlns="http://www.w3.org/2000/svg" xmlns:xlink="http://www.w3.org/1999/xlink">
	<desc>
			Created with Pixso.
	</desc>
	<defs/>
	<path id="$" d="M4.46484 17.9844Q3.07031 17.8555 2.11719 17.168Q1.16797 16.4805 0.753906 15.2656L1.9375 14.6562Q2.11328 15.5195 2.81641 16.1211Q3.51953 16.7188 4.46484 16.8945L4.46484 13.1836Q3.42578 12.9609 2.74219 12.6992Q2.0625 12.4336 1.61328 11.9062Q1.16797 11.375 1.16797 10.4961Q1.16797 9.69531 1.56641 9.03906Q1.96875 8.38281 2.71094 7.96094Q3.45703 7.53516 4.46484 7.45703L4.46484 5.83984L5.56641 5.83984L5.56641 7.47266Q6.75391 7.56641 7.52734 8.10547Q8.30469 8.64062 8.86328 9.67969L7.82422 10.4961Q7.42578 9.56641 6.91016 9.12109Q6.39844 8.67188 5.56641 8.55859L5.56641 12.3203Q6.60938 12.543 7.28906 12.8086Q7.96875 13.0703 8.42188 13.6172Q8.87891 14.1602 8.87891 15.0703Q8.87891 16.3047 7.98438 17.082Q7.08984 17.8555 5.56641 17.9844L5.56641 19.6016L4.46484 19.6016L4.46484 17.9844ZM4.46484 8.54297Q3.44141 8.64062 2.91016 9.12109Q2.38281 9.60156 2.38281 10.3984Q2.38281 11.1211 2.91797 11.4883Q3.45703 11.8555 4.46484 12.0977L4.46484 8.54297ZM5.56641 16.9297Q7.67969 16.7539 7.67969 15.168Q7.67969 14.4336 7.125 14.0508Q6.57422 13.6641 5.56641 13.4258L5.56641 16.9297Z" fill="#FFFFFF" fill-opacity="1.000000" fill-rule="evenodd"/>
	<path id="/mo" d="M53.6484 38.1211L52.4492 38.1211L57.3438 25.3203L58.543 25.3203L53.6484 38.1211ZM69.3932 28.8398Q70.19 28.8398 70.8853 29.168Q71.5846 29.4961 72.0143 30.1836Q72.4478 30.8711 72.4478 31.8789L72.4478 37L71.1666 37L71.1666 32.0078Q71.1666 30.9688 70.6471 30.4648Q70.1275 29.9609 69.2799 29.9609Q68.6393 29.9609 68.1041 30.2734Q67.5689 30.5859 67.2408 31.1875Q66.9127 31.7852 66.9127 32.6172L66.9127 37L65.6314 37L65.6314 32.0078Q65.6314 30.9688 65.1119 30.4648Q64.5924 29.9609 63.7447 29.9609Q63.1666 29.9609 62.6236 30.2578Q62.0807 30.5508 61.7291 31.1758Q61.3775 31.8008 61.3775 32.7266L61.3775 37L60.0963 37L60.0963 29L61.2174 29L61.2955 30.2461Q61.7135 29.543 62.3932 29.1914Q63.0728 28.8398 63.8541 28.8398Q64.7369 28.8398 65.4791 29.2422Q66.2252 29.6406 66.608 30.4062Q66.9596 29.6406 67.7603 29.2422Q68.5611 28.8398 69.3932 28.8398ZM78.7193 28.8398Q80.5279 28.8398 81.5591 29.9453Q82.5904 31.0469 82.5904 33Q82.5904 34.9531 81.5591 36.0586Q80.5279 37.1602 78.7193 37.1602Q76.9107 37.1602 75.8794 36.0586Q74.8482 34.9531 74.8482 33Q74.8482 31.0469 75.8794 29.9453Q76.9107 28.8398 78.7193 28.8398ZM78.7193 29.9453Q77.5044 29.9453 76.8169 30.7617Q76.1294 31.5742 76.1294 33Q76.1294 34.4258 76.8169 35.2422Q77.5044 36.0547 78.7193 36.0547Q79.9341 36.0547 80.6216 35.2422Q81.313 34.4258 81.313 33Q81.313 31.5742 80.6216 30.7617Q79.9341 29.9453 78.7193 29.9453Z" fill="#FFFFFF" fill-opacity="1.000000" fill-rule="evenodd"/>
	<path id="19" d="M24.6616 9.92334L24.6616 35L21.6279 35L21.6279 16.6123Q21.6279 15.8145 21.7021 13.6807Q20.4126 14.9331 18.6963 15.8701Q16.9893 16.7979 15.208 17.2153L14.4102 14.4414Q15.3193 14.3301 16.8779 13.5879Q18.4365 12.8457 19.8745 11.8438Q21.3218 10.8325 22.0083 9.92334L24.6616 9.92334ZM39.8325 9.54297Q42.9033 9.54297 45.0835 11.1758Q47.273 12.8086 48.3955 15.7217Q49.5181 18.6255 49.5181 22.457Q49.5181 28.7656 47.0503 32.0776Q44.5825 35.3804 39.8696 35.3804Q36.4834 35.3804 34.3682 33.9795Q32.2622 32.5693 31.1675 29.7212L34.1641 28.1255Q34.8506 30.3613 36.0474 31.4468Q37.2441 32.5322 39.8325 32.5322Q43.5899 32.5322 45.167 29.6841Q46.7441 26.8267 46.7441 21.4365L46.7441 21.0933L46.5957 21.0933Q46.0576 23.5981 44.063 24.7021Q42.0684 25.8062 39.6006 25.8062Q35.7969 25.8062 33.4961 23.6074Q31.2046 21.3994 31.2046 17.6699Q31.2046 13.9497 33.5425 11.751Q35.8804 9.54297 39.8325 9.54297ZM39.8696 12.4653Q37.2813 12.4653 35.834 13.8569Q34.396 15.2393 34.396 17.707Q34.396 20.1006 35.834 21.4922Q37.2813 22.8745 39.8696 22.8745Q42.3003 22.8745 43.8125 21.4365Q45.334 19.9893 45.334 17.707Q45.334 15.3506 43.8311 13.9126Q42.3374 12.4653 39.8696 12.4653Z" fill="#FFFFFF" fill-opacity="1.000000" fill-rule="evenodd"/>
</svg>
