<svg width="90.000000" height="45.000000" viewBox="0 0 90 45" fill="none" xmlns="http://www.w3.org/2000/svg" xmlns:xlink="http://www.w3.org/1999/xlink">
	<desc>
			Created with Pixso.
	</desc>
	<defs/>
	<path id="$" d="M4.46484 17.9844Q3.07031 17.8555 2.11719 17.168Q1.16797 16.4805 0.753906 15.2656L1.9375 14.6562Q2.11328 15.5195 2.81641 16.1211Q3.51953 16.7188 4.46484 16.8945L4.46484 13.1836Q3.42578 12.9609 2.74219 12.6992Q2.0625 12.4336 1.61328 11.9062Q1.16797 11.375 1.16797 10.4961Q1.16797 9.69531 1.56641 9.03906Q1.96875 8.38281 2.71094 7.96094Q3.45703 7.53516 4.46484 7.45703L4.46484 5.83984L5.56641 5.83984L5.56641 7.47266Q6.75391 7.56641 7.52734 8.10547Q8.30469 8.64062 8.86328 9.67969L7.82422 10.4961Q7.42578 9.56641 6.91016 9.12109Q6.39844 8.67188 5.56641 8.55859L5.56641 12.3203Q6.60938 12.543 7.28906 12.8086Q7.96875 13.0703 8.42188 13.6172Q8.87891 14.1602 8.87891 15.0703Q8.87891 16.3047 7.98438 17.082Q7.08984 17.8555 5.56641 17.9844L5.56641 19.6016L4.46484 19.6016L4.46484 17.9844ZM4.46484 8.54297Q3.44141 8.64062 2.91016 9.12109Q2.38281 9.60156 2.38281 10.3984Q2.38281 11.1211 2.91797 11.4883Q3.45703 11.8555 4.46484 12.0977L4.46484 8.54297ZM5.56641 16.9297Q7.67969 16.7539 7.67969 15.168Q7.67969 14.4336 7.125 14.0508Q6.57422 13.6641 5.56641 13.4258L5.56641 16.9297Z" fill="#FFFFFF" fill-opacity="1.000000" fill-rule="evenodd"/>
	<path id="/mo" d="M59.6484 38.1211L58.4492 38.1211L63.3438 25.3203L64.543 25.3203L59.6484 38.1211ZM75.3932 28.8398Q76.19 28.8398 76.8853 29.168Q77.5846 29.4961 78.0143 30.1836Q78.4478 30.8711 78.4478 31.8789L78.4478 37L77.1666 37L77.1666 32.0078Q77.1666 30.9688 76.6471 30.4648Q76.1275 29.9609 75.2799 29.9609Q74.6393 29.9609 74.1041 30.2734Q73.5689 30.5859 73.2408 31.1875Q72.9127 31.7852 72.9127 32.6172L72.9127 37L71.6314 37L71.6314 32.0078Q71.6314 30.9688 71.1119 30.4648Q70.5924 29.9609 69.7447 29.9609Q69.1666 29.9609 68.6236 30.2578Q68.0807 30.5508 67.7291 31.1758Q67.3775 31.8008 67.3775 32.7266L67.3775 37L66.0963 37L66.0963 29L67.2174 29L67.2955 30.2461Q67.7135 29.543 68.3932 29.1914Q69.0728 28.8398 69.8541 28.8398Q70.7369 28.8398 71.4791 29.2422Q72.2252 29.6406 72.608 30.4062Q72.9596 29.6406 73.7603 29.2422Q74.5611 28.8398 75.3932 28.8398ZM84.7193 28.8398Q86.5279 28.8398 87.5591 29.9453Q88.5904 31.0469 88.5904 33Q88.5904 34.9531 87.5591 36.0586Q86.5279 37.1602 84.7193 37.1602Q82.9107 37.1602 81.8794 36.0586Q80.8482 34.9531 80.8482 33Q80.8482 31.0469 81.8794 29.9453Q82.9107 28.8398 84.7193 28.8398ZM84.7193 29.9453Q83.5044 29.9453 82.8169 30.7617Q82.1294 31.5742 82.1294 33Q82.1294 34.4258 82.8169 35.2422Q83.5044 36.0547 84.7193 36.0547Q85.9341 36.0547 86.6216 35.2422Q87.313 34.4258 87.313 33Q87.313 31.5742 86.6216 30.7617Q85.9341 29.9453 84.7193 29.9453Z" fill="#FFFFFF" fill-opacity="1.000000" fill-rule="evenodd"/>
	<path id="25" d="M15.811 32.5322Q21.0156 28.6914 23.7896 26.2051Q26.5635 23.7095 27.7603 21.6777Q28.957 19.646 28.957 17.4102Q28.957 15.165 27.5098 13.7827Q26.0718 12.3911 23.6411 12.3911Q21.0898 12.3911 19.5127 14.061Q17.9355 15.731 17.6758 18.5884L15.0132 16.9834Q15.5049 13.6064 17.7686 11.5747Q20.0322 9.54297 23.7524 9.54297Q26.2666 9.54297 28.1777 10.5356Q30.0981 11.519 31.1187 13.3096Q32.1484 15.0908 32.1484 17.4102Q32.1484 19.8408 30.9888 22.0859Q29.8384 24.3218 27.2129 26.7988Q24.5874 29.2666 20.1436 32.2261L20.1436 32.2632Q22.6484 32.1519 23.9102 32.1519L32.6865 32.1519L32.6865 35L15.811 35L15.811 32.5322ZM46.9733 18.9224Q50.5451 18.9224 52.7067 21.1489Q54.8776 23.3755 54.8776 27.0215Q54.8776 30.9365 52.5954 33.1631Q50.3132 35.3804 46.2868 35.3804Q42.9099 35.3804 40.7946 33.9238Q38.6887 32.458 37.5476 29.6377L40.5163 28.0884Q41.1564 30.2871 42.4274 31.4097Q43.7077 32.5322 46.1755 32.5322Q48.7546 32.5322 50.239 31.1313Q51.7233 29.7212 51.7233 27.2441Q51.7233 24.5908 50.3503 23.1899Q48.9865 21.7798 46.3981 21.7798Q42.4924 21.7798 40.8132 24.2104L38.1135 24.2104L39.635 9.92334L53.7365 9.92334L53.7365 12.7715L42.2233 12.7715L41.2307 20.6758L41.1936 21.019L41.2307 21.019Q43.2438 18.9224 46.9733 18.9224Z" fill="#FFFFFF" fill-opacity="1.000000" fill-rule="evenodd"/>
</svg>
