<svg width="80.000000" height="80.000000" viewBox="0 0 80 80" fill="none" xmlns="http://www.w3.org/2000/svg" xmlns:xlink="http://www.w3.org/1999/xlink">
	<desc>
			Created with Pixso.
	</desc>
	<defs>
		<clipPath id="clip25_35">
			<rect id="icon" width="33.000000" height="33.000000" transform="translate(24.000000 23.000000)" fill="white" fill-opacity="0"/>
		</clipPath>
	</defs>
	<circle id="Background" cx="40.000000" cy="40.000000" r="40.000000" fill="#35AFBF" fill-opacity="1.000000"/>
	<rect id="icon" width="33.000000" height="33.000000" transform="translate(24.000000 23.000000)" fill="#FFFFFF" fill-opacity="0"/>
	<g clip-path="url(#clip25_35)">
		<path id="Vector" d="M42.207 50.5164L42.207 48.2478L24 48.2478L24 50.5256C24 52.5884 25.667 54.293 27.73 54.293L44.042 54.293C43.8853 54.1509 43.7344 54.0261 43.5923 53.8833C42.7012 52.9895 42.2026 51.7783 42.207 50.5164Z" fill="#FFFFFF" fill-opacity="1.000000" fill-rule="nonzero"/>
		<path id="Vector" d="M36.8911 36.7634L39.5332 38.5774L42.1855 36.7634C42.9111 36.2686 43.4873 35.1521 43.4873 34.2742L43.4873 30.5259L39.54 28.5737L35.5928 30.521L35.5928 34.2742C35.5928 35.1519 36.1655 36.2686 36.8911 36.7634ZM37.4863 33.2207C37.6812 33.0273 37.9966 33.0288 38.1899 33.2244L38.9834 34.0256L40.8931 32.1162C41.0879 31.9216 41.4028 31.9216 41.5977 32.1165C41.792 32.3108 41.7915 32.6262 41.5972 32.8208L39.334 35.0852C39.2407 35.1787 39.1143 35.2322 38.9819 35.2327L38.981 35.2327C38.8481 35.2319 38.7212 35.1782 38.6284 35.0833L37.4824 33.9258C37.2891 33.73 37.291 33.4146 37.4863 33.2207Z" fill="#FFFFFF" fill-opacity="1.000000" fill-rule="nonzero"/>
		<path id="Vector" d="M54.3613 24.7068L54.3452 24.7068C52.8828 24.7068 51.666 25.929 51.666 27.3923L51.666 31.9612L57 31.9612L57 27.3835C57.0068 25.9172 55.8276 24.7209 54.3613 24.7068Z" fill="#FFFFFF" fill-opacity="1.000000" fill-rule="nonzero"/>
		<path id="Vector" d="M31.6431 24.7068C30.2598 24.7068 29.1343 25.8174 29.1343 27.1799L28.9873 47.252L42.7046 47.252C42.9839 47.2632 43.2041 47.4934 43.2026 47.7732L43.2026 50.5164C43.1978 52.5903 44.8696 54.2781 46.9429 54.293L46.9556 54.293C49.0215 54.2781 50.6846 52.5911 50.6704 50.5249L50.6704 27.3933C50.6704 26.3467 51.1411 25.418 51.8486 24.7068L31.6431 24.7068ZM34.5972 30.2102C34.5903 30.0229 34.6929 29.8489 34.8599 29.7632L39.3184 27.5723C39.4556 27.5044 39.6157 27.5044 39.7529 27.5723L44.2192 29.7695C44.3862 29.855 44.4888 30.0288 44.4829 30.2163L44.4829 34.2742C44.4829 35.4819 43.7456 36.9058 42.7476 37.5859L39.8228 39.5916C39.7407 39.6479 39.6436 39.6782 39.5439 39.6782C39.4448 39.6782 39.3481 39.6482 39.2666 39.5916L36.3335 37.5859C35.3354 36.9053 34.5972 35.4817 34.5972 34.2742L34.5972 30.2102ZM46.6162 44.9761L32.9609 44.9761C32.686 44.9761 32.4634 44.7534 32.4634 44.4783C32.4634 44.2034 32.686 43.9805 32.9609 43.9805L46.6162 43.9805C46.8916 43.9805 47.1143 44.2034 47.1143 44.4783C47.1143 44.7534 46.8916 44.9761 46.6162 44.9761ZM46.6162 42.3447L32.9609 42.3447C32.686 42.3447 32.4634 42.1218 32.4634 41.8469C32.4634 41.5718 32.686 41.3491 32.9609 41.3491L46.6162 41.3491C46.8916 41.3491 47.1143 41.5718 47.1143 41.8469C47.1143 42.1218 46.8916 42.3447 46.6162 42.3447Z" fill="#FFFFFF" fill-opacity="1.000000" fill-rule="nonzero"/>
	</g>
</svg>
