<svg width="80.000000" height="80.000000" viewBox="0 0 80 80" fill="none" xmlns="http://www.w3.org/2000/svg" xmlns:xlink="http://www.w3.org/1999/xlink">
	<desc>
			Created with Pixso.
	</desc>
	<defs>
		<clipPath id="clip25_40">
			<rect id="icon" width="38.000000" height="38.000000" transform="translate(21.000000 21.000000)" fill="white" fill-opacity="0"/>
		</clipPath>
	</defs>
	<circle id="Background" cx="40.000000" cy="40.000000" r="40.000000" fill="#35AFBF" fill-opacity="1.000000"/>
	<rect id="icon" width="38.000000" height="38.000000" transform="translate(21.000000 21.000000)" fill="#FFFFFF" fill-opacity="0"/>
	<g clip-path="url(#clip25_40)">
		<path id="XMLID 1893" d="M38.8833 28.8748C33.6138 29.4004 29.4111 33.6028 28.8857 38.8723L33.2983 38.8723L33.2983 41.1062L28.8857 41.1062C29.4111 46.3755 33.6138 50.5781 38.8833 51.1038L38.8833 46.6914L41.1172 46.6914L41.1172 51.1038C46.3867 50.5781 50.5889 46.3755 51.1147 41.1062L46.7021 41.1062L46.7021 38.8723L51.1147 38.8723C50.5889 33.6028 46.3867 29.4004 41.1172 28.8748L41.1172 33.2871L38.8833 33.2871L38.8833 28.8748ZM41.1172 35.5212L41.1172 39.3914L43.9707 41.2939L42.7314 43.1526L38.8833 40.5872L38.8833 35.5212L41.1172 35.5212Z" fill="#FFFFFF" fill-opacity="1.000000" fill-rule="nonzero"/>
		<path id="XMLID 1897" d="M55.2168 28.6282L58.314 28.8171L58.4497 26.5872L51.5977 26.1692L51.1724 32.4622L53.4009 32.6125L53.5669 30.1565C55.6348 33.0017 56.7549 36.4219 56.7549 39.9893C56.7549 49.2283 49.2383 56.7446 39.9995 56.7446C30.7607 56.7446 23.2441 49.2283 23.2441 39.9893C23.2441 30.7505 30.7607 23.2341 39.9995 23.2341L39.9995 21C29.5049 21 21.0103 29.4932 21.0103 39.9893C21.0103 56.7542 41.4292 65.4146 53.4268 53.4167C57.0137 49.8301 58.9888 45.0615 58.9888 39.9893C58.9888 35.8552 57.6621 31.895 55.2168 28.6282Z" fill="#FFFFFF" fill-opacity="1.000000" fill-rule="nonzero"/>
	</g>
</svg>
