<svg width="80.000000" height="80.000000" viewBox="0 0 80 80" fill="none" xmlns="http://www.w3.org/2000/svg" xmlns:xlink="http://www.w3.org/1999/xlink">
	<desc>
			Created with Pixso.
	</desc>
	<defs>
		<clipPath id="clip25_2">
			<rect id="icon" width="30.000000" height="30.000000" transform="translate(25.000000 25.000000)" fill="white" fill-opacity="0"/>
		</clipPath>
	</defs>
	<circle id="Background" cx="40.000000" cy="40.000000" r="40.000000" fill="#35AFBF" fill-opacity="1.000000"/>
	<rect id="icon" width="30.000000" height="30.000000" transform="translate(25.000000 25.000000)" fill="#FFFFFF" fill-opacity="0"/>
	<g clip-path="url(#clip25_2)">
		<path id="Vector" d="M47.9102 37.3633L49.668 37.3633L49.668 40.8789L47.9102 40.8789L47.9102 37.3633Z" fill="#FFFFFF" fill-opacity="1.000000" fill-rule="nonzero"/>
		<path id="Vector" d="M49.668 31.2109C49.668 31.6963 49.2744 32.0898 48.7891 32.0898C48.3037 32.0898 47.9102 31.6963 47.9102 31.2109C47.9102 30.7256 48.3037 30.332 48.7891 30.332C49.2744 30.332 49.668 30.7256 49.668 31.2109Z" fill="#FFFFFF" fill-opacity="1.000000" fill-rule="evenodd"/>
		<path id="Vector" d="M54.1211 25L25.8789 25C25.3931 25 25 25.3931 25 25.8789L25 40C25 40.4858 25.3931 40.8789 25.8789 40.8789L46.1523 40.8789L46.1523 36.4844C46.1523 35.9985 46.5454 35.6055 47.0312 35.6055L50.5469 35.6055C51.0327 35.6055 51.4258 35.9985 51.4258 36.4844L51.4258 40.8789L54.1211 40.8789C54.6069 40.8789 55 40.4858 55 40L55 25.8789C55 25.3931 54.6069 25 54.1211 25ZM43.5156 32.0898L41.7578 32.0898C39.334 32.0898 37.3633 34.0613 37.3633 36.4844C37.3633 36.9702 36.9702 37.3633 36.4844 37.3633C35.9985 37.3633 35.6055 36.9702 35.6055 36.4844C35.6055 35.0305 34.4229 33.8477 32.9688 33.8477C31.5146 33.8477 30.332 35.0305 30.332 36.4844C30.332 36.9702 29.939 37.3633 29.4531 37.3633C28.9673 37.3633 28.5742 36.9702 28.5742 36.4844C28.5742 34.0613 30.5449 32.0898 32.9688 32.0898C34.3179 32.0898 35.5112 32.7136 36.3179 33.6726C37.3433 31.6985 39.3838 30.332 41.7578 30.332L43.5156 30.332C44.0015 30.332 44.3945 30.7251 44.3945 31.2109C44.3945 31.6968 44.0015 32.0898 43.5156 32.0898ZM48.7891 33.8477C47.335 33.8477 46.1523 32.6648 46.1523 31.2109C46.1523 29.7571 47.335 28.5742 48.7891 28.5742C50.2432 28.5742 51.4258 29.7571 51.4258 31.2109C51.4258 32.6648 50.2432 33.8477 48.7891 33.8477Z" fill="#FFFFFF" fill-opacity="1.000000" fill-rule="nonzero"/>
		<path id="Vector" d="M25.8789 53.2422L47.9102 53.2422L47.9102 54.1211C47.9102 54.6069 48.3032 55 48.7891 55C49.2749 55 49.668 54.6069 49.668 54.1211L49.668 47.3953L51.1685 45.8948C51.333 45.73 51.4258 45.5068 51.4258 45.2734L51.4258 43.5156C51.4258 43.0298 51.0327 42.6367 50.5469 42.6367L47.0312 42.6367C46.5454 42.6367 46.1523 43.0298 46.1523 43.5156L46.1523 45.2734C46.1523 45.5068 46.2451 45.73 46.4097 45.8948L47.9102 47.3953L47.9102 47.9102L25.8789 47.9102C25.3931 47.9102 25 48.3032 25 48.7891L25 52.3633C25 52.8491 25.3931 53.2422 25.8789 53.2422Z" fill="#FFFFFF" fill-opacity="1.000000" fill-rule="nonzero"/>
		<path id="Vector" d="M54.1211 47.9102L51.4258 47.9102L51.4258 53.2422L54.1211 53.2422C54.6069 53.2422 55 52.8491 55 52.3633L55 48.7891C55 48.3032 54.6069 47.9102 54.1211 47.9102Z" fill="#FFFFFF" fill-opacity="1.000000" fill-rule="nonzero"/>
	</g>
</svg>
