<svg width="80.000000" height="80.000000" viewBox="0 0 80 80" fill="none" xmlns="http://www.w3.org/2000/svg" xmlns:xlink="http://www.w3.org/1999/xlink">
	<desc>
			Created with Pixso.
	</desc>
	<defs/>
	<circle id="Background" cx="40.000000" cy="40.000000" r="40.000000" fill="#35AFBF" fill-opacity="1.000000"/>
	<path id="Vector" d="M48.2236 45.189C47.0137 46.8511 45.0532 47.9336 42.8447 47.9336L39.7456 47.9336C38.6748 47.9336 37.7632 47.2539 37.418 46.3025C36.9917 46.1755 36.5742 46.0105 36.1665 45.8079C35.3027 45.3787 34.5186 44.7976 33.8281 44.0774C29.3511 45.061 26 49.0505 26 53.8235L26 54.4473C26 55.3047 26.6953 56 27.5527 56L51.645 56C52.5024 56 53.1978 55.3047 53.1978 54.4473L53.1978 53.8235C53.1978 50.1362 51.1978 46.9167 48.2236 45.189Z" fill="#FFFFFF" fill-opacity="1.000000" fill-rule="nonzero"/>
	<path id="Vector" d="M32.1782 38.4348C32.8457 38.4348 33.4268 38.0649 33.7275 37.519C33.7354 37.5408 33.7437 37.5623 33.7515 37.5837C33.7539 37.5901 33.7563 37.5967 33.7588 37.603C34.4648 39.4614 35.8384 41.0193 37.6499 41.7C38.0879 41.0039 38.8628 40.5408 39.7461 40.5408L42.8452 40.5408C43.1543 40.5408 43.4419 40.4536 43.6943 40.3127C44.1177 40.0757 44.4985 39.4749 44.6953 39.1565C45.0103 38.6467 45.2539 38.1069 45.4702 37.5183C45.5918 37.739 45.7588 37.9309 45.959 38.0813L45.959 38.8413C45.959 40.5583 44.562 41.9556 42.8452 41.9556L39.7461 41.9556C39.1602 41.9556 38.6851 42.4304 38.6851 43.0164C38.6851 43.6023 39.1602 44.0771 39.7461 44.0771L42.8452 44.0771C45.7319 44.0771 48.0811 41.7285 48.0811 38.8413L48.0811 38.0813C48.5103 37.7588 48.7881 37.2454 48.7881 36.6667L48.7881 33.468L48.7881 32.2412C48.7881 31.6509 48.4985 31.1287 48.0542 30.8074C47.7095 26.4446 44.0488 23 39.5991 23C35.1494 23 31.4888 26.4446 31.144 30.8074C30.6997 31.1287 30.4102 31.6509 30.4102 32.2412L30.4102 36.6667C30.4102 37.646 31.2056 38.4348 32.1782 38.4348ZM39.5991 25.1218C42.8936 25.1218 45.6104 27.6392 45.9277 30.8513C45.7192 31.0154 45.5488 31.2249 45.4312 31.4653C44.4302 28.8538 42.1953 27.0354 39.5991 27.0354C36.9468 27.0354 34.748 28.9163 33.771 31.4551C33.77 31.4585 33.7686 31.4619 33.7671 31.4656C33.6494 31.2249 33.4785 31.0154 33.2705 30.8513C33.5879 27.6392 36.3052 25.1218 39.5991 25.1218Z" fill="#FFFFFF" fill-opacity="1.000000" fill-rule="nonzero"/>
</svg>
