<svg width="20.000000" height="20.000000" viewBox="0 0 20 20" fill="none" xmlns="http://www.w3.org/2000/svg" xmlns:xlink="http://www.w3.org/1999/xlink">
	<desc>
			Created with Pixso.
	</desc>
	<defs>
		<clipPath id="clip27_71">
			<rect id="Icon01" width="20.000000" height="20.000000" fill="white" fill-opacity="0"/>
		</clipPath>
	</defs>
	<rect id="Icon01" width="20.000000" height="20.000000" fill="#FFFFFF" fill-opacity="0"/>
	<g clip-path="url(#clip27_71)">
		<path id="Vector" d="M14.5859 0L5.41357 0C2.42871 0 0 2.42859 0 5.41382L0 14.5863C0 17.5714 2.42871 19.9999 5.41357 19.9999L14.5864 19.9999C17.5713 19.9999 20 17.5714 20 14.5863L20 5.41382C20 2.42859 17.5713 0 14.5859 0L14.5859 0ZM10 15.4686C6.98438 15.4686 4.53125 13.0154 4.53125 10C4.53125 6.98456 6.98438 4.53137 10 4.53137C13.0156 4.53137 15.4688 6.98456 15.4688 10C15.4688 13.0154 13.0156 15.4686 10 15.4686ZM15.5991 5.82104C14.708 5.82104 13.9834 5.09625 13.9834 4.20514C13.9834 3.31403 14.708 2.58911 15.5991 2.58911C16.4902 2.58911 17.2153 3.31403 17.2153 4.20514C17.2153 5.09625 16.4902 5.82104 15.5991 5.82104Z" fill="#FFFFFF" fill-opacity="1.000000" fill-rule="nonzero"/>
		<path id="Vector" d="M10 5.7041C7.63135 5.7041 5.7041 7.63129 5.7041 10.0002C5.7041 12.369 7.63135 14.2963 10 14.2963C12.3691 14.2963 14.2964 12.369 14.2964 10.0002C14.2964 7.63129 12.3691 5.7041 10 5.7041Z" fill="#FFFFFF" fill-opacity="1.000000" fill-rule="nonzero"/>
		<path id="Vector" d="M15.5991 3.76172C15.3545 3.76172 15.1558 3.96069 15.1558 4.20514C15.1558 4.44958 15.3545 4.64856 15.5991 4.64856C15.8438 4.64856 16.043 4.44971 16.043 4.20514C16.043 3.96051 15.8438 3.76172 15.5991 3.76172Z" fill="#FFFFFF" fill-opacity="1.000000" fill-rule="nonzero"/>
	</g>
</svg>
