<svg width="20.000000" height="20.000000" viewBox="0 0 20 20" fill="none" xmlns="http://www.w3.org/2000/svg" xmlns:xlink="http://www.w3.org/1999/xlink">
	<desc>
			Created with Pixso.
	</desc>
	<defs>
		<clipPath id="clip27_15">
			<rect id="Icon04" width="20.000000" height="20.000000" fill="white" fill-opacity="0"/>
		</clipPath>
	</defs>
	<rect id="Icon04" width="20.000000" height="20.000000" fill="#FFFFFF" fill-opacity="0"/>
	<g clip-path="url(#clip27_15)">
		<path id="Vector" d="M20 3.79877C19.2563 4.125 18.4639 4.34125 17.6377 4.44623C18.4873 3.93872 19.1362 3.14124 19.4414 2.17999C18.6489 2.65253 17.7739 2.98627 16.8413 3.17249C16.0889 2.37128 15.0161 1.875 13.8462 1.875C11.5762 1.875 9.74854 3.71753 9.74854 5.97626C9.74854 6.30127 9.77637 6.61377 9.84375 6.91125C6.43506 6.745 3.41895 5.11127 1.39258 2.6225C1.03857 3.23627 0.831055 3.93872 0.831055 4.69501C0.831055 6.11499 1.5625 7.37378 2.65234 8.10248C1.99365 8.09003 1.34766 7.89874 0.799805 7.59747C0.799805 7.60999 0.799805 7.62622 0.799805 7.64252C0.799805 9.63501 2.22119 11.29 4.08496 11.6713C3.75146 11.7625 3.3877 11.8063 3.00977 11.8063C2.74756 11.8063 2.48242 11.7913 2.23389 11.7363C2.76514 13.36 4.27246 14.5538 6.06494 14.5925C4.66992 15.6838 2.89893 16.3412 0.981445 16.3412C0.64502 16.3412 0.322266 16.3262 0 16.285C1.81641 17.4562 3.96875 18.125 6.29004 18.125C13.835 18.125 17.96 11.875 17.96 6.45752C17.96 6.27625 17.9536 6.10126 17.9448 5.92749C18.7588 5.34998 19.4424 4.62872 20 3.79877Z" fill="#FFFFFF" fill-opacity="1.000000" fill-rule="nonzero"/>
	</g>
</svg>
