<svg width="20.000000" height="20.000000" viewBox="0 0 20 20" fill="none" xmlns="http://www.w3.org/2000/svg" xmlns:xlink="http://www.w3.org/1999/xlink">
	<desc>
			Created with Pixso.
	</desc>
	<defs>
		<clipPath id="clip27_52">
			<rect id="Icon02" width="20.000000" height="20.000000" fill="white" fill-opacity="0"/>
		</clipPath>
	</defs>
	<rect id="Icon02" width="20.000000" height="20.000000" fill="#FFFFFF" fill-opacity="0"/>
	<g clip-path="url(#clip27_52)">
		<path id="Vector" d="M10.0024 0L9.99756 0C4.48389 0 0 4.48499 0 10C0 12.1875 0.705078 14.215 1.90381 15.8613L0.657715 19.5762L4.50146 18.3475C6.08252 19.395 7.96875 20 10.0024 20C15.5161 20 20 15.5137 20 10C20 4.48627 15.5161 0 10.0024 0ZM15.8213 14.1213C15.5801 14.8025 14.6226 15.3675 13.8589 15.5325C13.3364 15.6437 12.6538 15.7325 10.3564 14.78C7.41748 13.5625 5.5249 10.5762 5.37744 10.3825C5.23633 10.1887 4.18994 8.80127 4.18994 7.36627C4.18994 5.93127 4.91895 5.23248 5.2124 4.9325C5.45361 4.68628 5.85254 4.57373 6.23486 4.57373C6.35889 4.57373 6.47021 4.58002 6.56982 4.58502C6.86377 4.59747 7.01123 4.61499 7.20508 5.07874C7.44629 5.65997 8.03369 7.09497 8.10352 7.24249C8.1748 7.39001 8.24609 7.59003 8.14648 7.78375C8.05273 7.98376 7.97021 8.07251 7.82227 8.24249C7.6748 8.41248 7.53516 8.54248 7.3877 8.72498C7.25244 8.88373 7.1001 9.05377 7.27002 9.34747C7.43994 9.63501 8.02734 10.5938 8.89258 11.3638C10.0088 12.3575 10.9136 12.675 11.2373 12.81C11.4785 12.91 11.7661 12.8862 11.9424 12.6987C12.166 12.4575 12.4424 12.0575 12.7236 11.6638C12.9238 11.3812 13.1763 11.3463 13.4414 11.4462C13.7114 11.54 15.1401 12.2463 15.4336 12.3925C15.7275 12.54 15.9214 12.61 15.9927 12.7338C16.0625 12.8575 16.0625 13.4387 15.8213 14.1213Z" fill="#FFFFFF" fill-opacity="1.000000" fill-rule="nonzero"/>
	</g>
</svg>
