<svg width="154.198242" height="30.897461" viewBox="0 0 154.198 30.8975" fill="none" xmlns="http://www.w3.org/2000/svg" xmlns:xlink="http://www.w3.org/1999/xlink">
	<desc>
			Created with Pixso.
	</desc>
	<defs/>
	<path id="Vector" d="M21.8994 25.5718L1.22461 11.3103C-0.870605 9.86523 -0.158203 6.8562 2.4541 6.14856L24.4277 0.184692C24.8936 0.0167236 25.3921 -0.0377197 25.8828 0.0256348C26.3735 0.0891113 26.8423 0.268677 27.2495 0.549438C27.6572 0.830322 27.9917 1.20422 28.2256 1.64026C28.46 2.07629 28.5864 2.56177 28.5952 3.05664L27.293 23.2808C27.1387 25.6813 23.9946 27.017 21.8994 25.5718Z" fill="#E9327C" fill-opacity="1.000000" fill-rule="nonzero"/>
	<path id="Vector" d="M15.3418 29.0924L3.16162 5.27258C2.8833 4.72766 2.76074 4.11646 2.80762 3.50635C2.85449 2.89624 3.06885 2.31091 3.42725 1.81494C3.78564 1.31897 4.27441 0.931519 4.83887 0.695557C5.40332 0.459473 6.02246 0.384033 6.62695 0.477295L29.1997 3.96118C29.7197 4.04138 30.2129 4.24377 30.6392 4.55176C31.0654 4.85974 31.4121 5.26453 31.6514 5.73279C31.8906 6.20105 32.0156 6.71936 32.0156 7.24524C32.0156 7.77112 31.8906 8.28943 31.6509 8.75757L21.2524 29.0935C20.9736 29.637 20.5498 30.0928 20.0283 30.411C19.5068 30.7292 18.9077 30.8976 18.2969 30.8975C17.686 30.8973 17.0869 30.7288 16.5654 30.4104C16.0444 30.0919 15.6206 29.6359 15.3418 29.0924Z" fill="#1DACE3" fill-opacity="1.000000" fill-rule="nonzero"/>
	<path id="Vector" d="M28.54 3.85852L17.2876 2.12183L3.47217 5.87305L8.98682 16.661L21.8999 25.5717C22.1846 25.766 22.498 25.9149 22.8286 26.0131L27.7334 16.4213L28.54 3.85852Z" fill="#001A49" fill-opacity="1.000000" fill-rule="nonzero"/>
	<path id="Vector" d="M85.5361 6.64282C85.5361 6.22461 85.6602 5.81567 85.8926 5.4679C86.125 5.12012 86.4551 4.84912 86.8418 4.68909C87.228 4.52893 87.6533 4.48706 88.0635 4.56873C88.4736 4.65027 88.8506 4.85168 89.146 5.14746C89.4419 5.44324 89.6436 5.82007 89.7251 6.23022C89.8066 6.6405 89.7646 7.06567 89.6045 7.45203C89.4443 7.8385 89.1733 8.1687 88.8257 8.40112C88.478 8.63354 88.0693 8.75757 87.6509 8.75757C87.0918 8.75183 86.5571 8.52722 86.1616 8.13184C85.7666 7.73645 85.542 7.2019 85.5361 6.64282ZM85.8887 9.79126L89.4141 9.79126L89.4141 21.5392L85.8887 21.5392L85.8887 9.79126Z" fill="#001A49" fill-opacity="1.000000" fill-rule="nonzero"/>
	<path id="Vector" d="M104.638 15.6655C104.678 16.442 104.565 17.219 104.305 17.9518C104.045 18.6844 103.642 19.3584 103.12 19.9349C102.599 20.5115 101.968 20.9791 101.265 21.3112C100.562 21.6431 99.7998 21.8326 99.0229 21.8691C98.3696 21.9047 97.7163 21.7946 97.1108 21.5465C96.5054 21.2986 95.9624 20.9191 95.5215 20.4355L95.5215 26.2391L91.9976 26.2391L91.9976 9.79163L95.5215 9.79163L95.5215 10.8956C95.9624 10.4122 96.5054 10.033 97.1108 9.78516C97.7163 9.53748 98.3696 9.42737 99.0229 9.46313C99.7993 9.49939 100.562 9.68896 101.265 10.0208C101.968 10.3525 102.598 10.8201 103.12 11.3966C103.642 11.973 104.045 12.647 104.305 13.3795C104.565 14.1122 104.678 14.889 104.638 15.6655ZM101.113 15.6655C101.1 15.1155 100.924 14.5818 100.608 14.1311C100.292 13.6805 99.8511 13.333 99.3389 13.1321C98.8267 12.9312 98.2661 12.8857 97.7285 13.0016C97.1904 13.1174 96.6987 13.3893 96.3149 13.7832C95.9307 14.1771 95.6714 14.6757 95.5688 15.2162C95.4668 15.7568 95.5264 16.3157 95.7402 16.8226C95.9536 17.3296 96.3125 17.7622 96.771 18.0664C97.2295 18.3706 97.7671 18.5328 98.3174 18.5328C98.6953 18.5498 99.0723 18.4868 99.4243 18.3477C99.7759 18.2086 100.094 17.9968 100.358 17.726C100.622 17.4552 100.826 17.1316 100.956 16.7765C101.086 16.4214 101.14 16.0428 101.113 15.6655Z" fill="#001A49" fill-opacity="1.000000" fill-rule="nonzero"/>
	<path id="Vector" d="M115.515 18.0128C115.515 20.7153 113.166 21.8666 110.628 21.8666C109.603 21.9594 108.573 21.7424 107.673 21.2438C106.772 20.7451 106.042 19.9878 105.577 19.0696L108.631 17.3318C108.755 17.7561 109.021 18.125 109.384 18.3767C109.748 18.6284 110.187 18.7478 110.628 18.7146C111.474 18.7146 111.896 18.4553 111.896 17.9863C111.896 16.6932 106.116 17.3755 106.116 13.3097C106.116 10.749 108.277 9.45715 110.726 9.45715C111.645 9.42834 112.554 9.64624 113.359 10.0883C114.165 10.5304 114.837 11.1804 115.307 11.9706L112.3 13.592C112.168 13.2837 111.949 13.0209 111.669 12.8364C111.389 12.652 111.061 12.5541 110.726 12.5549C110.115 12.5549 109.739 12.7854 109.739 13.2129C109.736 14.5613 115.515 13.6681 115.515 18.0128Z" fill="#001A49" fill-opacity="1.000000" fill-rule="nonzero"/>
	<path id="Vector" d="M128.396 9.79126L128.396 21.5392L124.872 21.5392L124.872 20.4329C124.465 20.9203 123.948 21.3042 123.364 21.5535C122.78 21.8026 122.146 21.9099 121.512 21.8665C119.139 21.8665 117.119 20.1747 117.119 17.0021L117.119 9.79126L120.643 9.79126L120.643 16.488C120.613 16.7681 120.645 17.0511 120.736 17.3176C120.827 17.5842 120.975 17.8276 121.169 18.0311C121.364 18.2346 121.601 18.3933 121.863 18.496C122.125 18.5986 122.406 18.6429 122.687 18.6259C123.979 18.6259 124.877 17.8745 124.877 16.2057L124.877 9.79126L128.396 9.79126Z" fill="#001A49" fill-opacity="1.000000" fill-rule="nonzero"/>
	<path id="Vector" d="M148.596 14.325L148.596 21.5393L145.072 21.5393L145.072 14.6316C145.072 13.4572 144.507 12.7047 143.38 12.7047C142.205 12.7047 141.548 13.5275 141.548 14.9139L141.548 21.5393L138.022 21.5393L138.022 14.6316C138.022 13.4572 137.459 12.7047 136.331 12.7047C135.156 12.7047 134.499 13.5275 134.499 14.9139L134.499 21.5393L130.974 21.5393L130.974 9.79126L134.504 9.79126L134.504 10.8677C134.869 10.3884 135.349 10.0083 135.899 9.76208C136.449 9.51587 137.052 9.41138 137.652 9.45825C138.256 9.42871 138.856 9.55603 139.396 9.82764C139.935 10.0994 140.395 10.5061 140.73 11.0083C141.121 10.4828 141.639 10.0649 142.235 9.79395C142.831 9.52283 143.486 9.40735 144.139 9.45825C146.835 9.46289 148.596 11.3885 148.596 14.325Z" fill="#001A49" fill-opacity="1.000000" fill-rule="nonzero"/>
	<path id="Vector" d="M154.198 7.10266C154.198 8.54736 153.027 9.71863 151.583 9.71863C150.138 9.71863 148.966 8.54736 148.966 7.10266C148.966 5.65784 150.138 4.48657 151.583 4.48657C153.027 4.48657 154.198 5.65784 154.198 7.10266Z" fill="#001A49" fill-opacity="1.000000" fill-rule="evenodd"/>
	<path id="Vector" d="M37.4194 4.38745L40.9448 4.38745L40.9448 21.5392L37.4194 21.5392L37.4194 4.38745ZM42.9409 15.6652C42.937 14.4336 43.2983 13.2285 43.98 12.2025C44.6616 11.1765 45.6318 10.3759 46.769 9.90186C47.9058 9.42773 49.1577 9.30176 50.3657 9.53967C51.5742 9.77759 52.6851 10.3687 53.5576 11.2383C54.4297 12.1078 55.0244 13.2166 55.2661 14.4243C55.5078 15.6321 55.3857 16.8843 54.915 18.0226C54.4448 19.1609 53.647 20.1339 52.6235 20.8186C51.5996 21.5033 50.3955 21.8688 49.1641 21.8688C48.3457 21.8776 47.5342 21.7233 46.7769 21.4148C46.019 21.1063 45.3301 20.65 44.751 20.0725C44.1714 19.495 43.7129 18.8077 43.4023 18.051C43.0913 17.2943 42.9346 16.4833 42.9409 15.6652ZM51.8696 15.6652C51.856 15.1339 51.686 14.6185 51.3809 14.1835C51.0752 13.7484 50.6484 13.413 50.1538 13.2191C49.6587 13.0254 49.1177 12.9817 48.5986 13.0939C48.0791 13.2059 47.604 13.4686 47.2329 13.8492C46.8618 14.2299 46.6113 14.7114 46.5127 15.2336C46.4141 15.7559 46.4717 16.2955 46.6782 16.7853C46.8843 17.275 47.231 17.693 47.6733 17.9869C48.1162 18.2809 48.6357 18.4379 49.1675 18.438C49.5312 18.4484 49.8936 18.3832 50.231 18.2467C50.5684 18.1101 50.874 17.9052 51.1284 17.6447C51.3828 17.3842 51.5801 17.0737 51.7085 16.733C51.8369 16.3923 51.8936 16.0288 51.8745 15.6652L51.8696 15.6652ZM69.4434 9.78784L69.4434 20.9491C69.4434 24.8962 66.3652 26.5638 63.2412 26.5638C62.1411 26.6469 61.04 26.4254 60.0576 25.924C59.0752 25.4225 58.25 24.6603 57.6724 23.7208L60.6792 21.9817C60.9219 22.472 61.3086 22.8766 61.7871 23.1412C62.2661 23.4059 62.8145 23.5179 63.3584 23.4626C63.7061 23.51 64.0596 23.4789 64.3931 23.3715C64.7271 23.2639 65.0322 23.0829 65.2866 22.8417C65.541 22.6003 65.7383 22.3051 65.8633 21.9775C65.9883 21.65 66.0381 21.2986 66.0093 20.9491L66.0093 19.8682C65.5962 20.373 65.0708 20.774 64.4751 21.0393C63.8794 21.3044 63.2295 21.4263 62.5781 21.3951C61.0278 21.3469 59.5566 20.697 58.4766 19.5831C57.397 18.4692 56.793 16.9786 56.793 15.4272C56.793 13.8759 57.397 12.3853 58.4766 11.2714C59.5566 10.1573 61.0278 9.50757 62.5781 9.45935C63.2295 9.42822 63.8794 9.55005 64.4751 9.81519C65.0708 10.0804 65.5962 10.4814 66.0093 10.9863L66.0093 9.78784L69.4434 9.78784ZM66.0137 15.4266C66.0371 14.8593 65.8901 14.2979 65.5913 13.8147C65.293 13.3314 64.8569 12.9486 64.3394 12.7152C63.8218 12.4818 63.2461 12.4087 62.686 12.5051C62.1265 12.6016 61.6084 12.8632 61.1987 13.2563C60.7891 13.6495 60.5063 14.1562 60.3867 14.7114C60.2671 15.2666 60.3164 15.8448 60.5283 16.3718C60.7402 16.8987 61.1045 17.3502 61.5752 17.6683C62.0454 17.9865 62.6006 18.1565 63.1685 18.1567C63.5386 18.1829 63.9102 18.1311 64.2593 18.0049C64.6084 17.8787 64.9272 17.6808 65.1953 17.424C65.4634 17.1671 65.6743 16.8571 65.8154 16.5137C65.9565 16.1703 66.0239 15.8011 66.0137 15.4302L66.0137 15.4266ZM71.4395 15.6571C71.4355 14.4255 71.7974 13.2203 72.4785 12.1945C73.1602 11.1685 74.1309 10.3678 75.2676 9.8938C76.4043 9.41968 77.6562 9.2937 78.8647 9.53162C80.0732 9.76953 81.1836 10.3606 82.0562 11.2302C82.9282 12.0997 83.5229 13.2085 83.7646 14.4163C84.0063 15.624 83.8843 16.8762 83.4141 18.0145C82.9434 19.1528 82.146 20.1259 81.1221 20.8105C80.0981 21.4952 78.894 21.8607 77.6626 21.8607C76.8452 21.8695 76.0342 21.7153 75.2773 21.4075C74.52 21.0996 73.8315 20.6439 73.2524 20.0673C72.6733 19.4906 72.2144 18.8043 71.9033 18.0486C71.5918 17.2927 71.4346 16.4825 71.4395 15.6652L71.4395 15.6571ZM80.3687 15.6571C80.355 15.1255 80.1851 14.6097 79.8794 14.1743C79.5742 13.7389 79.1475 13.4031 78.6523 13.2091C78.1572 13.015 77.6157 12.9713 77.0957 13.0834C76.5762 13.1956 76.1006 13.4584 75.7295 13.8392C75.3584 14.2201 75.1079 14.7019 75.0093 15.2245C74.9106 15.7471 74.9683 16.2871 75.1748 16.7771C75.3813 17.2671 75.728 17.6852 76.1709 17.9792C76.6143 18.2732 77.1343 18.4299 77.666 18.4299C78.0288 18.4396 78.3896 18.3741 78.7261 18.2378C79.0625 18.1014 79.3672 17.8971 79.6211 17.6376C79.8745 17.3781 80.0718 17.0688 80.2007 16.7295C80.3291 16.39 80.3862 16.0277 80.3687 15.6652L80.3687 15.6571Z" fill="#001A49" fill-opacity="1.000000" fill-rule="nonzero"/>
</svg>
