<svg width="102.517090" height="37.033691" viewBox="0 0 102.517 37.0337" fill="none" xmlns="http://www.w3.org/2000/svg" xmlns:xlink="http://www.w3.org/1999/xlink">
	<desc>
			Created with Pixso.
	</desc>
	<defs/>
	<path id="Maker" d="M55.4001 26L52.7957 26L52.7957 18.7761L52.9238 14.7207L52.8828 14.7207L49.0376 26L46.6638 26L42.8442 14.7207L42.8032 14.7207L42.9468 18.7761L42.9468 26L40.3218 26L40.3218 12.1418L44.5208 12.1418L47.0227 19.699L47.9045 22.8315L47.9456 22.8315L48.8479 19.7195L51.3293 12.1418L55.4001 12.1418L55.4001 26ZM68.2332 24.2568Q68.6741 24.2568 68.9458 24.1748L68.7356 25.918Q68.146 26.2102 67.3719 26.2102Q65.357 26.2102 64.9571 24.6362Q64.4957 25.4104 63.5267 25.8103Q62.5628 26.2102 61.24 26.2102Q59.7071 26.2102 58.8457 25.5181Q57.9844 24.8259 57.9844 23.5237Q57.9844 20.9602 62.0809 20.2065L64.5982 19.7195L64.5982 19.217Q64.5982 18.3762 64.1265 17.884Q63.6548 17.3918 62.814 17.3918Q61.8501 17.3918 61.24 17.8123Q60.6299 18.2275 60.3992 19.176L58.1126 18.207Q58.4458 16.8433 59.6199 16.0691Q60.7991 15.2898 62.6858 15.2898Q64.9366 15.2898 66.1927 16.269Q67.4539 17.2432 67.4539 19.1555L67.4539 23.457Q67.4539 23.8774 67.6436 24.0671Q67.8333 24.2568 68.2332 24.2568ZM62.1424 24.2568Q63.0652 24.2568 63.8291 23.8057Q64.5982 23.3545 64.5982 22.5752L64.5982 21.4832L62.3526 21.9907Q61.6399 22.1548 61.2913 22.4419Q60.9427 22.7239 60.9427 23.2263Q60.9427 23.7339 61.2554 23.9954Q61.5733 24.2568 62.1424 24.2568ZM75.4781 21.3601L73.5658 23.3955L73.5658 26L70.6895 26L70.6895 10.9011L73.5658 10.9011L73.5658 20.2886L78.1236 15.5L81.3792 15.5L77.4315 19.6169L81.6305 26L78.3748 26L75.4781 21.3601ZM92.6354 20.709Q92.6354 21.2935 92.5482 21.842L85.1142 21.842Q85.5551 24.0671 87.7392 24.0671Q88.6466 24.0671 89.2311 23.7339Q89.8207 23.3955 90.0514 22.7649L92.4047 23.6262Q91.8971 24.8875 90.7128 25.5488Q89.5285 26.2102 87.7392 26.2102Q85.1347 26.2102 83.7043 24.7747Q82.279 23.334 82.279 20.75Q82.279 18.166 83.6632 16.7305Q85.0526 15.2898 87.5751 15.2898Q90.0104 15.2898 91.3229 16.6997Q92.6354 18.1045 92.6354 20.709ZM87.5546 17.4124Q86.5036 17.4124 85.8832 18.0225Q85.2628 18.6274 85.0937 19.8271L89.9899 19.8271Q89.8207 18.6479 89.1901 18.0327Q88.5595 17.4124 87.5546 17.4124ZM100.992 15.2898Q101.725 15.2898 102.125 15.5205L101.771 18.043Q101.284 17.7251 100.448 17.7251Q99.4177 17.7251 98.6692 18.4736Q97.9258 19.217 97.9258 20.5603L97.9258 26L95.0495 26L95.0495 15.5L97.5464 15.5L97.7361 17.5559Q98.5974 15.2898 100.992 15.2898Z" fill="#252626" fill-opacity="1.000000" fill-rule="evenodd"/>
	<path id="Ellipse 21" d="M28.123 30.0347C27.7432 30.3506 27.3491 30.647 26.9414 30.9233C23.9072 32.9883 20.3799 33.7847 16.9893 33.4351C13.3379 33.0649 10.125 31.4067 7.75293 28.9585C5.19482 26.3271 3.80078 22.9907 3.55908 19.5908C3.29248 15.9302 4.37012 12.479 6.37158 9.71973C8.52148 6.74512 11.5669 4.79541 14.8735 3.96973C18.4331 3.07422 22.0186 3.53955 25.0825 5.03369C25.5293 5.25098 25.9604 5.4873 26.3755 5.7417C30.6147 8.33936 28.5361 14.0527 23.9946 16.0762L23.4424 16.3223C22.3237 16.8208 21.0078 16.1987 19.9062 15.6631C19.208 15.3228 18.4453 15.2622 17.7456 15.438C16.9917 15.626 16.3691 16.0708 15.9463 16.6553C15.4902 17.2837 15.2988 18.0249 15.3511 18.7441C15.4062 19.519 15.7363 20.2095 16.2393 20.7271C16.7793 21.2847 17.4761 21.6011 18.1938 21.6738C18.9663 21.7539 19.7036 21.5479 20.2998 21.1421C21.314 20.4551 22.5269 19.6514 23.7051 19.9844L24.29 20.1499C29.0732 21.5029 31.9438 26.8555 28.123 30.0347Z" fill="#35AFBF" fill-opacity="1.000000" fill-rule="evenodd"/>
</svg>
